<svg xmlns="http://www.w3.org/2000/svg" xmlns:xlink="http://www.w3.org/1999/xlink"
    viewBox="0 0 970.85 465.34">
    <defs>
        <style>
            .cls-1{fill:none;}.cls-2{clip-path:url(#clip-path);}.cls-3{fill:#fff;}.cls-4{fill:#ed7d31;}.cls-5{clip-path:url(#clip-path-2);}</style>
        <clipPath id="clip-path" transform="translate(-311.85 -98.04)">
            <rect class="cls-1" x="176.11" width="1236.39" height="190.46" />
        </clipPath>
        <clipPath id="clip-path-2" transform="translate(-311.85 -98.04)">
            <rect class="cls-1" x="176.11" y="463.17" width="1236.39" height="190.46" />
        </clipPath>
    </defs>
    <g id="Layer_2" data-name="Layer 2">
        <g id="Layer_1-2" data-name="Layer 1">
            <g class="cls-2">
                <path class="cls-3"
                    d="M314.21,275.4h18.26V105.2H314.21v-2.49h52.72v43.17c7.89-26.57,32.38-47.32,62.68-47.32,29.89,0,64.77,12.45,66,55.21V275.4h17.85v2.49h-71V275.4h18.27V153.77c0-48.15-14.95-52.31-31.14-52.72-34,0-62.68,28.23-62.68,62.68V275.4H385.2v2.49h-71Z"
                    transform="translate(-311.85 -98.04)" />
                <path class="cls-3"
                    d="M535.47,190.3c0-51.06,41.52-92.16,92.58-92.16a92,92,0,0,1,92.16,92.16c0,51.06-41.1,92.58-92.16,92.58A92.67,92.67,0,0,1,535.47,190.3ZM587,231.4c17,16.61,37.36,28.23,56.87,32.8,19.51,4.15,36.53.83,47.74-10.38,11.21-10.8,14.53-27.82,10-47.33-4.15-19.92-15.77-39.85-32.79-56.87s-37-28.64-56.87-32.8c-19.51-4.56-36.53-.83-47.33,10C553.32,138,550,155,554.15,174.53,558.72,194,570.34,214.38,587,231.4Z"
                    transform="translate(-311.85 -98.04)" />
                <path class="cls-4"
                    d="M739.72,262.54a20,20,0,0,1,20.34-19.93A19.67,19.67,0,0,1,780,262.54a20,20,0,0,1-19.92,20.34A20.38,20.38,0,0,1,739.72,262.54Z"
                    transform="translate(-311.85 -98.04)" />
                <path class="cls-3"
                    d="M826.48,255.89A92.46,92.46,0,0,1,957.24,125.13a94.63,94.63,0,0,1,24.5,43.59l.41,1.66H817.34c3.33,19.92,14.95,41.92,33.63,61,35.29,34.87,81.78,45.25,104.61,22.42a87.81,87.81,0,0,0,23.67-42.35l2.49.83a95.2,95.2,0,0,1-24.5,43.59,92.68,92.68,0,0,1-130.76,0Zm122-88a105.58,105.58,0,0,0-13.29-21.18c-17.43-22-39.85-34.87-63.1-36.11-17-.83-32.79,5-44,16.19-10,10-13.29,24.49-11.21,41.1Z"
                    transform="translate(-311.85 -98.04)" />
                <path class="cls-3"
                    d="M998.34,275.4h18.26V105.2H998.34v-2.49h52.72v38.61a57.83,57.83,0,0,1,14.53-24.08c22.42-22.42,53.14-21.17,67.25-14.95l1.66.42-24.91,24.91-.83-.42c-.41-.41-26.57-22.83-41.51-7.89a55.37,55.37,0,0,0-16.19,39V275.4h18.27v2.49h-71Z"
                    transform="translate(-311.85 -98.04)" />
                <path class="cls-3"
                    d="M1146.54,275.4h18.26V105.2h-18.26v-2.49h52.72v38.61a57.73,57.73,0,0,1,14.53-24.08c22.42-22.42,53.13-21.17,67.25-14.95l1.66.42-24.91,24.91-.83-.42c-.41-.41-26.57-22.83-41.51-7.89a55.37,55.37,0,0,0-16.19,39V275.4h18.26v2.49h-71Z"
                    transform="translate(-311.85 -98.04)" />
            </g>
            <g class="cls-5">
                <path class="cls-3"
                    d="M311.85,555.91h18.27V385.71H311.85v-2.5h52.73v43.18c7.88-26.57,32.38-47.33,62.68-47.33,29.89,0,64.76,12.46,66,55.22V555.91h17.85v2.49h-71v-2.49h18.26V434.28c0-48.16-14.94-52.31-31.13-52.73-34,0-62.68,28.23-62.68,62.69V555.91h18.26v2.49h-71Z"
                    transform="translate(-311.85 -98.04)" />
                <path class="cls-3"
                    d="M533.12,470.81c0-51.06,41.51-92.16,92.57-92.16a92,92,0,0,1,92.16,92.16c0,51.06-41.1,92.57-92.16,92.57A92.65,92.65,0,0,1,533.12,470.81Zm51.47,41.09c17,16.61,37.37,28.23,56.88,32.8,19.51,4.15,36.53.83,47.74-10.38,11.21-10.79,14.53-27.81,10-47.32-4.15-19.93-15.77-39.86-32.79-56.88s-37-28.64-56.88-32.79c-19.51-4.57-36.53-.83-47.32,10C551,418.5,547.65,435.52,551.8,455,556.37,474.54,568,494.89,584.59,511.9Z"
                    transform="translate(-311.85 -98.04)" />
                <path class="cls-3"
                    d="M824.49,536.4A92.46,92.46,0,0,1,955.25,405.63a94.82,94.82,0,0,1,24.5,43.59l.41,1.66H815.35c3.33,19.93,14.95,41.93,33.63,61,35.29,34.88,81.78,45.25,104.61,22.42A87.74,87.74,0,0,0,977.26,492l2.49.83a95.29,95.29,0,0,1-24.5,43.59,92.71,92.71,0,0,1-130.76,0Zm122-88a105.69,105.69,0,0,0-13.29-21.17c-17.43-22-39.85-34.87-63.1-36.12-17-.83-32.79,5-44,16.19-10,10-13.29,24.49-11.21,41.1Z"
                    transform="translate(-311.85 -98.04)" />
                <path class="cls-3"
                    d="M996.35,555.91h18.26V385.71H996.35v-2.5h52.72v38.61a57.9,57.9,0,0,1,14.53-24.08c22.42-22.41,53.14-21.17,67.25-14.94l1.66.41-24.91,24.91-.83-.41c-.41-.42-26.57-22.83-41.51-7.89a55.37,55.37,0,0,0-16.19,39V555.91h18.27v2.49h-71Z"
                    transform="translate(-311.85 -98.04)" />
                <path class="cls-3"
                    d="M1144.55,555.91h18.26V385.71h-18.26v-2.5h52.72v38.61a57.79,57.79,0,0,1,14.53-24.08c22.41-22.41,53.13-21.17,67.25-14.94l1.66.41-24.91,24.91-.83-.41c-.41-.42-26.57-22.83-41.51-7.89a55.37,55.37,0,0,0-16.19,39V555.91h18.26v2.49h-71Z"
                    transform="translate(-311.85 -98.04)" />
            </g>
            <path class="cls-3"
                d="M312.42,416.7h18.27V246.5H312.42V244h52.72v43.18c7.89-26.57,32.38-47.33,62.69-47.33,29.89,0,64.76,12.46,66,55.22V416.7h17.85v2.49h-71V416.7H459V295.07c0-48.16-14.94-52.31-31.13-52.73-34,0-62.69,28.23-62.69,62.69V416.7h18.27v2.49h-71Z"
                transform="translate(-311.85 -98.04)" />
            <path class="cls-3"
                d="M533.69,331.6c0-51.06,41.51-92.16,92.57-92.16a92,92,0,0,1,92.16,92.16c0,51.06-41.1,92.57-92.16,92.57A92.65,92.65,0,0,1,533.69,331.6Zm51.47,41.09c17,16.61,37.36,28.23,56.87,32.8,19.52,4.15,36.54.83,47.74-10.38,11.21-10.79,14.53-27.81,10-47.32-4.15-19.93-15.78-39.86-32.8-56.88S630,262.27,610.07,258.12c-19.51-4.57-36.53-.83-47.32,10-11.21,11.21-14.54,28.23-10.38,47.74C556.93,335.33,568.56,355.68,585.16,372.69Z"
                transform="translate(-311.85 -98.04)" />
            <path class="cls-4"
                d="M737.93,403.83a20,20,0,0,1,20.34-19.93,19.68,19.68,0,0,1,19.93,19.93,20,20,0,0,1-19.93,20.34A20.37,20.37,0,0,1,737.93,403.83Z"
                transform="translate(-311.85 -98.04)" />
            <path class="cls-3"
                d="M824.69,397.19A92.47,92.47,0,0,1,955.46,266.42,94.8,94.8,0,0,1,980,310l.41,1.66H815.56c3.32,19.93,14.94,41.93,33.62,61,35.29,34.88,81.78,45.25,104.62,22.42a87.8,87.8,0,0,0,23.66-42.34l2.49.83a95.18,95.18,0,0,1-24.49,43.59,92.72,92.72,0,0,1-130.77,0Zm122-88A105.63,105.63,0,0,0,933.46,288c-17.44-22-39.86-34.87-63.11-36.12-17-.83-32.79,5-44,16.19-10,10-13.28,24.49-11.21,41.1Z"
                transform="translate(-311.85 -98.04)" />
            <path class="cls-3"
                d="M996.55,416.7h18.27V246.5H996.55V244h52.72v38.61a58,58,0,0,1,14.53-24.08c22.42-22.41,53.14-21.17,67.25-14.94l1.66.41-24.9,24.91-.83-.41c-.42-.42-26.57-22.83-41.52-7.89a55.37,55.37,0,0,0-16.19,39V416.7h18.27v2.49h-71Z"
                transform="translate(-311.85 -98.04)" />
            <path class="cls-3"
                d="M1144.75,416.7H1163V246.5h-18.26V244h52.72v38.61A57.9,57.9,0,0,1,1212,258.53c22.42-22.41,53.14-21.17,67.25-14.94l1.66.41L1256,268.91l-.83-.41c-.41-.42-26.56-22.83-41.51-7.89a55.37,55.37,0,0,0-16.19,39V416.7h18.27v2.49h-71Z"
                transform="translate(-311.85 -98.04)" />
        </g>
    </g>
</svg>